<?xml version="1.0" encoding="UTF-8"?> <svg xmlns="http://www.w3.org/2000/svg" id="final-light" width="464" height="100" viewBox="0 0 464 100"><defs><style> .cls-1 { fill: #ffffff; } .cls-2 { fill: #fe490c; } </style></defs><path id="Washly" class="cls-1" d="M464,48.254L444.874,88.528a20.763,20.763,0,0,1-4.592,6.575,16.249,16.249,0,0,1-5.792,3.527,19.968,19.968,0,0,1-6.476,1.062,23.78,23.78,0,0,1-7.3-1.027,24.186,24.186,0,0,1-6.2-3.082V86.61a24.563,24.563,0,0,0,5.791,2.843,19.586,19.586,0,0,0,5.929.856,9.98,9.98,0,0,0,5.037-1.233,9.2,9.2,0,0,0,3.6-4.521l0.148-.342h-5.494L412.593,48.254h13.981l11.857,28.022,12.063-28.022H464Zm-68.811-13.7h12.679v52.74H395.185V34.555ZM374.761,67.432q0-4.863-2.364-7.363t-6.888-2.5a10.7,10.7,0,0,0-5.415,1.336,9.092,9.092,0,0,0-3.6,3.767,12.359,12.359,0,0,0-1.268,5.788V87.295H342.549V34.555h12.679V54.911a17.771,17.771,0,0,1,5.929-5.527,17.463,17.463,0,0,1,8.738-2.226,19.025,19.025,0,0,1,9.493,2.226,14.832,14.832,0,0,1,6.031,6.336,21.376,21.376,0,0,1,2.09,9.795V87.295H374.761V67.432Zm-64.972-5.274,9.252,0.685a35.7,35.7,0,0,1,10.315,2.089,11.042,11.042,0,0,1,5.312,4.007,10.583,10.583,0,0,1,1.576,5.822,11.14,11.14,0,0,1-2.57,7.432,15.81,15.81,0,0,1-7.5,4.623,39.8,39.8,0,0,1-11.994,1.575,40.416,40.416,0,0,1-12.611-1.781,19.723,19.723,0,0,1-8.43-5,11.433,11.433,0,0,1-3.221-7.466h12.953a5.636,5.636,0,0,0,1.954,3.014,10.117,10.117,0,0,0,4.009,1.952,22.992,22.992,0,0,0,5.826.651,18.832,18.832,0,0,0,6.853-.959q2.329-.958,2.331-2.877a2.385,2.385,0,0,0-1.679-2.192,20.42,20.42,0,0,0-6-1.1l-7.128-.548a35.173,35.173,0,0,1-10.692-2.123,12.028,12.028,0,0,1-5.654-4.178,10.708,10.708,0,0,1,1.028-12.877,16.589,16.589,0,0,1,7.5-4.315,39.3,39.3,0,0,1,11.241-1.438,35.619,35.619,0,0,1,11.48,1.712,20.849,20.849,0,0,1,8.087,4.726,11.3,11.3,0,0,1,3.461,7.055H322.536a4.868,4.868,0,0,0-1.473-2.534,8.7,8.7,0,0,0-3.427-1.884,19.284,19.284,0,0,0-5.791-.719,16.631,16.631,0,0,0-6.169.89q-2.124.891-2.124,2.6a2.291,2.291,0,0,0,1.3,2.055A13.527,13.527,0,0,0,309.789,62.158ZM271.956,87.295l-1-8.29a20.94,20.94,0,0,1-7.018,6.817,20.587,20.587,0,0,1-19.978-.034,18.239,18.239,0,0,1-6.82-7.226,22.589,22.589,0,0,1-2.467-10.788,22.589,22.589,0,0,1,2.467-10.788,18.246,18.246,0,0,1,6.82-7.226,20.587,20.587,0,0,1,19.978-.034,21.324,21.324,0,0,1,7.03,6.757l0.989-8.229h13.228l-2.4,19.521,2.4,19.521H271.956Zm-3.7-25.1a15.637,15.637,0,0,0-4.763-3.836,12.275,12.275,0,0,0-5.723-1.4,9.983,9.983,0,0,0-5.312,1.4,9.868,9.868,0,0,0-3.6,3.836,12.618,12.618,0,0,0,0,11.164,9.853,9.853,0,0,0,3.6,3.836,9.972,9.972,0,0,0,5.312,1.4,12.26,12.26,0,0,0,5.723-1.4,15.6,15.6,0,0,0,4.763-3.836,16.433,16.433,0,0,0,3.084-5.582A16.454,16.454,0,0,0,268.255,62.192Zm-65.248,25.1-12.844-36.87-12.789,36.87H160.788l-16.106-51.37H158.39l11.581,39.424,13.366-39.424h13.708l13.392,39.39,11.555-39.39h13.639l-16.106,51.37H203.007Z" transform="translate(-0.406 -0.063)"></path><path id="icon_2" data-name="icon 2" class="cls-1" d="M116.574,80.191a4.809,4.809,0,1,1,4.807-4.809A4.808,4.808,0,0,1,116.574,80.191Zm-4.14-26.141a4.142,4.142,0,1,1,4.14-4.142A4.141,4.141,0,0,1,112.434,54.05Zm1.151,13.115a8.714,8.714,0,0,0-2.251,15.195c-0.027.014-.049,0.034-0.074,0.048a12.046,12.046,0,0,1,3.017,13.636,11.178,11.178,0,0,1-.806,1.561,2.374,2.374,0,0,1-2.005,1.124H75.007A48.486,48.486,0,0,0,103.655,62.1a9.343,9.343,0,0,1,1.9,2.784A9.031,9.031,0,0,1,113.585,67.165ZM67.091,81.392A29.608,29.608,0,1,1,85.343,54.049,29.57,29.57,0,0,1,67.091,81.392Zm2.631-7.107L55.782,62.77,41.843,74.285A24.57,24.57,0,0,0,69.722,74.285ZM61.346,53.87a5.555,5.555,0,1,0-3.43,5.135A5.56,5.56,0,0,0,61.346,53.87ZM35.566,40.1a24.6,24.6,0,0,0,0,27.9L47.073,54.044Zm6.294-6.288,0.338,0.28,0.077,0.063L55.8,45.323,69.739,33.809A24.565,24.565,0,0,0,41.86,33.809Zm34.152,34.2a24.608,24.608,0,0,0,0-27.909l-1.424,1.727L64.505,54.047,75.65,67.573Zm-46.3-45.944a8.386,8.386,0,0,1-15.888,4.873,5.971,5.971,0,0,1-2.686.638l0.008,0a5.989,5.989,0,1,1,4.323-10.132,8.47,8.47,0,0,1,1.3-1.066A8.4,8.4,0,1,1,26.231,2.5,11.277,11.277,0,1,1,29.709,22.065ZM8.048,85.292a8.031,8.031,0,0,1,3.747-10.657A48.436,48.436,0,0,0,36.573,98.725H7.275a6.757,6.757,0,1,1,0-13.512A6.26,6.26,0,0,1,8.048,85.292Z" transform="translate(-0.406 -0.063)"></path><path id="icon_1" data-name="icon 1" class="cls-2" d="M87.59,22.52A44.445,44.445,0,0,0,48.621,10.047c0.04,0.443.067,0.888,0.067,1.341a15.239,15.239,0,0,1-5.516,11.741,33.369,33.369,0,1,1-5.488,2.9,15.1,15.1,0,0,1-4.065.608,12.267,12.267,0,0,1-17.6,7.741A44.632,44.632,0,1,0,87.59,22.52h0Zm0,0" transform="translate(-0.406 -0.063)"></path></svg> 